grf																																													
version=1																																													
nRows=27																																													
nColumns=46																																													
inDegrees=yes																																													
endheader																																													
time	f1_1	f1_2	f1_3	p1_1	p1_2	p1_3	m1_1	m1_2	m1_3	f2_1	f2_2	f2_3	p2_1	p2_2	p2_3	m2_1	m2_2	m2_3	f3_1	f3_2	f3_3	p3_1	p3_2	p3_3	m3_1	m3_2	m3_3	f4_1	f4_2	f4_3	p4_1	p4_2	p4_3	m4_1	m4_2	m4_3	f5_1	f5_2	f5_3	p5_1	p5_2	p5_3	m5_1	m5_2	m5_3
9.825	4.351292133	-0.735349655	17.17882729	200	-920	0	1168.496216	-427.2104797	-1060.472412	0.927873135	-3.315398693	16.96776962	200	-320	0	1570.094482	878.4968872	-1179.455078	-4.70482983	374.0247185	694.1467285	200	300	0	76070.5902	-28001.79117	12383.17188	-3.089740837	3.676612383	27.6560154	200	900.0000153	0	-2163.507869	371.548437	756.8900757	-10.67251396	-366.2712708	677.2160645	200	1500	0	-42576.08984	-15068.80664	-7575.535156
9.826	2.728016615	-1.38342905	17.49568558	200	-920	0	837.4228516	-320.3345032	-1578.481934	-1.483964205	-2.83023119	15.36471367	200	-320	0	2328.483887	805.9383545	-1180.438354	-4.222209542	373.7014154	696.9907227	200	300	0	75471.19177	-28053.74829	12659.63379	-4.224761069	3.518118214	29.25209999	200	900.0000153	0	-1486.720875	327.8080617	951.624939	-11.95966911	-364.8247681	680.0830078	200	1500	0	-41700.64063	-15232.07617	-7492.095703
9.827	4.673370361	-1.221197128	17.81138039	200	-920	0	1274.437866	-70.41565704	-1325.177368	-1.480579138	-3.796495438	16.01246262	200	-320	0	2007.179443	762.0938721	-962.2879028	-6.63530279	371.6043691	690.0430908	200	300	0	76033.60581	-27921.13297	12543.48242	-3.899587288	3.999720932	28.92749786	200	900.0000153	0	-1403.834857	118.588302	828.7976685	-12.92490864	-364.6638794	673.0745239	200	1500	0	-42176.51563	-15610.70313	-7408.714355
9.828	3.379044533	-1.38173151	14.97405815	200	-920	0	1086.356812	-119.0336533	-1241.840332	-1.159170032	-2.827178001	19.8199482	200	-320	0	2180.55249	618.114502	-807.3128662	-8.565776093	371.4425646	698.2651367	200	300	0	75448.37934	-28510.57056	12549.74414	-4.221672546	3.195009541	29.57368469	200	900.0000153	0	-1935.929731	283.2910864	783.4002075	-13.40549088	-364.6642456	672.4353638	200	1500	0	-42668.07031	-15644.75293	-7157.706543
9.829	3.215857983	-2.347484589	17.80747604	200	-920	0	1220.190796	-149.2216797	-1339.37146	-2.12339735	-2.508481979	16.01277733	200	-320	0	1564.833496	682.815918	-923.5280151	-6.957049444	370.4754628	692.2626953	200	300	0	76132.88712	-28309.94545	12562.69531	-6.648122247	2.710348069	31.49336052	200	900.0000153	0	-1579.323218	642.2573274	695.1942139	-15.17526627	-363.3786011	672.7542725	200	1500	0	-42541.91016	-15754.07031	-7061.532715
9.83	4.835698128	-0.895035267	17.81060028	200	-920	0	1044.840088	-79.71238708	-1099.459351	0.123081118	-3.956861019	19.19042206	200	-320	0	1497.723877	596.5894165	-1199.324585	-10.01363273	369.6694931	690.3740234	200	300	0	75691.09029	-28619.64083	12845.88672	-3.571324358	3.189911297	28.61567879	200	900.0000153	0	-1745.566242	520.3320701	460.0772705	-13.40701866	-360.0043335	676.9005127	200	1500	0	-42312.5625	-15972.43262	-7408.124512
9.831	3.214140415	-1.380033493	16.54846191	200	-920	0	1267.296387	-220.1879578	-1391.324097	-1.801988125	-3.956861019	14.7370224	200	-320	0	1880.829102	705.1658936	-943.2131348	-8.404906102	368.8638293	693.5338745	200	300	0	74867.74656	-28780.89291	13006.91016	-4.224761166	4.155157398	27.33174896	200	900.0000153	0	-1955.096717	242.5169746	681.3149414	-19.84687042	-356.9534912	680.0987549	200	1500	0	-42641.70313	-16568.50195	-7892.193359
9.832	4.024919033	-1.862485886	17.4948082	200	-920	0	814.9986572	-308.6820984	-1274.593628	-0.356916815	-4.118244171	16.6364212	200	-320	0	2015.379883	432.1512146	-1058.240234	-8.887522184	366.6049791	684.6917725	200	300	0	75804.88718	-28693.65058	13025.72949	-2.605068389	4.317729552	29.25613976	200	900.0000153	0	-1695.023254	398.9290932	673.0820313	-19.84941864	-355.0250549	678.8275146	200	1500	0	-42669.53906	-16716.77734	-8213.862305
9.833	4.187246799	-1.861636639	15.28668594	200	-920	0	1245.12146	-264.2602234	-1203.497925	-0.840299785	-3.793442488	15.3670826	200	-320	0	2021.802368	654.2658691	-1038.964722	-10.81799524	364.8301986	688.170166	200	300	0	75493.09034	-28977.89477	12903.08691	-4.066807378	3.834088659	27.97420883	200	900.0000153	0	-1348.703308	398.4367144	881.5040283	-25.32505035	-355.8294067	678.5139771	200	1500	0	-43132.20703	-16926.72852	-8698.424805
9.834	3.214999199	-2.021322012	15.28581047	200	-920	0	1240.211792	-146.0625763	-1210.878296	-1.160862565	-3.314380646	16.32864761	200	-320	0	1851.144043	582.1655273	-1109.804443	-9.048395204	364.023192	686.2759399	200	300	0	75459.16066	-28976.9729	12941.43457	-2.447114026	3.353505715	29.89793015	200	900.0000153	0	-1368.451256	553.4220934	911.6771851	-25.48524475	-357.2762451	677.2397461	200	1500	0	-42462	-16940.97266	-8659.932617
9.835	3.863450527	-1.379184723	14.65758801	200	-920	0	1523.943481	-168.8135681	-1222.831787	-1.800295711	-2.988561153	16.95967484	200	-320	0	1877.934814	401.432373	-698.4536743	-10.01363172	363.0554184	684.0697021	200	300	0	75344.01224	-29105.05885	13005.66699	-3.901130785	3.835108162	29.25882912	200	900.0000153	0	-1836.530367	611.61648	758.1853027	-27.57744217	-357.5973206	670.5450439	200	1500	0	-42293.86328	-16943.16016	-8589.871094
9.836	4.025778294	-1.701102257	16.23342514	200	-920	0	944.2025146	-304.2329712	-1190.467773	-1.321143985	-3.472711086	16.32540894	200	-320	0	1707.782837	672.0339355	-981.2838135	-10.49624775	360.4736312	683.7577515	200	300	0	74870.71542	-29442.73861	12857.03027	-3.413369715	3.514039472	27.01083183	200	900.0000153	0	-1549.065723	322.8763811	699.1616211	-25.64492798	-357.7588806	666.723999	200	1500	0	-41916.53125	-17423.90039	-8556.941406
9.837	2.891202927	-1.218650341	16.23208809	200	-920	0	1459.593384	-307.309021	-1307.370483	-2.924804211	-2.66782999	14.41959381	200	-320	0	2008.954468	782.1233521	-705.3925781	-11.30061477	360.1524031	676.4954834	200	300	0	75071.80134	-29371.52179	13108.3623	-3.737000098	3.839187052	27.96614838	200	900.0000153	0	-1845.546508	-5.546245849	815.5446167	-27.57642365	-357.1150513	658.4335327	200	1500	0	-41160.40234	-17109.33789	-8441.758789
9.838	5.157776833	-1.055569649	15.60331726	200	-920	0	1218.660156	-348.4482117	-1209.54126	-1.804526925	-3.313363075	15.68930817	200	-320	0	1722.262085	616.5106201	-1135.814819	-11.7832309	358.2161237	681.2320557	200	300	0	74772.22322	-29371.77378	13062.85742	-3.089740838	3.678652292	31.17616653	200	900.0000153	0	-1723.830265	424.6870539	834.1911011	-26.28774071	-355.8297729	651.7332153	200	1500	0	-42020.58984	-17159.30078	-8350.993164
9.839	4.026637077	-0.574815273	16.86584473	200	-920	0	1122.400391	-76.95681	-1144.666748	-0.037200272	-3.313363075	17.60240936	200	-320	0	1459.790771	711.9211426	-1167.024902	-13.55283052	356.2808817	674.9208984	200	300	0	75065.03574	-29508.13116	13262.19922	-3.574412834	3.197049549	29.25513458	200	900.0000153	0	-1872.596491	366.348225	860.083252	-23.38947678	-352.7765503	651.0957642	200	1500	0	-41756.13672	-17081.17773	-8240.212891
9.84	2.242751837	-1.702800274	15.2888031	200	-920	0	1009.40332	-102.7176361	-1430.570557	-2.929881573	-4.276574135	16.63685608	200	-320	0	1973.206543	836.8988647	-1091.69397	-11.46148361	355.152342	674.2877197	200	300	0	74880.15293	-29543.6683	13223.60449	-4.70325531	4.000741241	29.56964874	200	900.0000153	0	-1897.208409	231.1263432	641.6796875	-24.35471535	-351.6514587	649.8209229	200	1500	0	-41447.02344	-17348.09961	-8156.708496
9.841	5.807086945	-1.540567875	19.06925011	200	-920	0	1254.891724	-274.8813477	-1176.408081	0.765899181	-2.507464409	16.96313095	200	-320	0	1608.634521	882.5543823	-1140.521729	-13.23108721	354.3449687	672.7133789	200	300	0	74888.99672	-29774.08822	13158.89941	-3.733911599	3.678652194	31.172472	200	900.0000153	0	-1726.324864	225.5628012	705.3565674	-23.38896942	-349.4016113	650.7781982	200	1500	0	-40662.83203	-17391.19727	-8156.118164
9.842	3.050095081	-0.576512814	17.80623627	200	-920	0	1550.26123	-280.3796082	-1610.998535	-3.409879684	-3.794460058	14.73459339	200	-320	0	1889.467651	706.656311	-950.3655396	-12.90934386	352.0878276	667.0274658	200	300	0	74929.87951	-29670.82064	13274.74805	-3.572868505	4.158214978	28.6133213	200	900.0000153	0	-1456.201595	372.8296118	602.4719238	-23.06705093	-347.4728394	649.1821289	200	1500	0	-41490.27344	-17483.92773	-8117.19873
9.843	5.320104122	-0.898430347	17.49432182	200	-920	0	981.5334473	-292.7992859	-1350.860107	-1.159170032	-2.989578724	17.60122681	200	-320	0	1590.411133	830.7023315	-865.2885742	-13.71370689	350.6366556	667.34729	200	300	0	74259.60612	-29943.46918	13493.50488	-4.062173926	3.669473982	31.17616463	200	900.0000153	0	-1479.028625	399.5568117	551.9879761	-23.3904953	-345.7062988	644.7210083	200	1500	0	-41649.18359	-17602.00977	-8445.217773
9.844	4.024919033	-1.541417122	17.18107414	200	-920	0	892.3449707	-192.4051056	-1313.121704	-1.160016298	-3.472711086	17.59626961	200	-320	0	2063.868896	937.1477661	-949.0585327	-15.16155968	348.701078	663.5585938	200	300	0	73925.61392	-29874.37938	13525.43262	-2.931786168	3.831028491	32.45776367	200	900.0000153	0	-1718.217703	341.6305972	667.3825684	-21.77989578	-343.2948608	645.0411987	200	1500	0	-41715.55078	-17716.82227	-8219.217773
9.845	2.081283092	-1.38088274	15.91884041	200	-920	0	1392.402588	-234.909668	-1398.175537	-2.124243498	-3.470675707	16.01305389	200	-320	0	2180.37915	497.9050903	-872.3462524	-14.83981264	347.2492043	661.3448486	200	300	0	74311.59828	-29805.18011	13441.54395	-4.391981636	3.348405168	31.18121338	200	900.0000153	0	-1612.745826	646.0650005	849.7289429	-24.35522461	-341.0453491	647.9152222	200	1500	0	-40560.10938	-17837.52344	-8258.320313
9.846	5.484149456	-1.218650341	17.80910301	200	-920	0	1151.452637	-110.4905167	-1111.717896	0.124773622	-3.796495438	17.91363907	200	-320	0	1753.613525	647.4505615	-1090.004883	-15.00068979	346.7658363	659.4526367	200	300	0	73267.65298	-29868.68222	13338.67676	-1.967074955	3.672534642	26.37709808	200	900.0000153	0	-1416.531934	484.8354772	1021.924622	-22.42219925	-337.8319702	644.0861816	200	1500	0	-41022.86719	-17826.49414	-8141.286621
9.847	2.405079365	-1.219499111	18.75320244	200	-920	0	967.0778809	-226.9220276	-1378.638062	-3.409033298	-3.634094238	16.32282257	200	-320	0	1950.34436	749.6367798	-905.3276367	-15.16155902	344.3461891	657.2382813	200	300	0	73613.44983	-29707.43998	13479.87891	-4.390436782	3.994622514	28.93155098	200	900.0000153	0	-2023.60367	213.9930536	862.5490112	-24.51643753	-336.2249451	638.0293579	200	1500	0	-41255.41797	-17812.25781	-8367.085938
9.848	4.835698128	-1.85993886	14.98056316	200	-920	0	697.612793	-42.31191254	-1061.134277	0.929565668	-3.474746227	15.05099487	200	-320	0	1726.605347	486.477417	-993.0372314	-15.48330577	343.8624854	658.1899414	200	300	0	72859.24675	-30015.56119	13434.83105	-2.282982861	3.350445399	28.60861206	200	900.0000153	0	-1495.838158	154.067124	698.4818726	-23.38896942	-336.0637207	633.2509766	200	1500	0	-40928.14063	-18134.80664	-8212.28125
9.849	2.242751837	-0.898430347	16.23381424	200	-920	0	1106.442749	-213.6586761	-1449.631714	-3.088470697	-3.473728657	16.96334648	200	-320	0	1963.106812	666.7892456	-988.6838989	-16.60941177	342.0873388	651.2420044	200	300	0	73184.49673	-29883.5377	13498.7002	-4.542213022	3.5140393	29.89424706	200	900.0000153	0	-1733.752127	340.5088907	538.4279785	-23.38998604	-334.1356201	632.6115723	200	1500	0	-40972.21484	-17826.17578	-8379.374023
9.85	4.511901855	-1.543114662	14.02926445	200	-920	0	887.2661133	-438.7848206	-1292.985474	-0.357763052	-3.791407108	15.69896126	200	-320	0	1443.045044	643.7020264	-929.3505249	-16.77028508	341.4435094	652.5040283	200	300	0	73283.48891	-29804.76815	13685.6377	-4.703255286	3.839186904	27.0172348	200	900.0000153	0	-1904.742013	453.8970787	622.2932129	-24.51541901	-333.6526489	629.7455444	200	1500	0	-41000.25781	-18104.80664	-8122.286621
9.851	4.186388016	-1.217801571	15.60579491	200	-920	0	727.6133423	-10.45833588	-1268.053467	-0.839453518	-2.668847561	16.96032715	200	-320	0	1862.770752	787.4571533	-1032.17041	-16.28766824	338.6998877	648.7139893	200	300	0	72771.97329	-29841.0905	13414.56543	-3.246150505	3.198069077	29.89491653	200	900.0000153	0	-1748.383477	353.4891131	704.2477417	-23.06552315	-332.2061768	624.9575195	200	1500	0	-40381.66406	-17998.76758	-7941.405762
